<?xml version="1.0" standalone="no"?>
<!DOCTYPE svg PUBLIC "-//W3C//DTD SVG 1.1//EN" "http://www.w3.org/Graphics/SVG/1.1/DTD/svg11.dtd">
<svg version="1.1" xmlns="http://www.w3.org/2000/svg" viewBox="0 0 63.26486636798097 250.40000915527344" width="63.26486636798097" height="250.40000915527344"><!-- svg-source:excalidraw --><metadata></metadata><defs><style class="style-fonts">
      </style></defs><rect x="0" y="0" width="63.26486636798097" height="250.40000915527344" fill="#ffffff"></rect><g stroke-linecap="round"><g transform="translate(10 10) rotate(0 21.632433183990486 115.20000457763672)"><path d="M0 0 C6.93 8.53, 38.93 34, 41.6 51.2 C44.27 68.4, 15.73 86.93, 16 103.2 C16.27 119.47, 44.8 127.6, 43.2 148.8 C41.6 170, 12.53 216.8, 6.4 230.4 M0 0 C6.93 8.53, 38.93 34, 41.6 51.2 C44.27 68.4, 15.73 86.93, 16 103.2 C16.27 119.47, 44.8 127.6, 43.2 148.8 C41.6 170, 12.53 216.8, 6.4 230.4" stroke="#1e1e1e" stroke-width="2" fill="none"></path></g></g><mask></mask></svg>